<svg width="242" height="111" viewBox="0 0 242 111" fill="none" xmlns="http://www.w3.org/2000/svg">
<path d="M0 98V0L146 49L0 98Z" transform="translate(1 2)" fill="#002D56" stroke="white" stroke-width="2"/>
<path d="M8.5906 0H0V1.07H1.07383L16.1074 33.17V36.38H15.0336V37.45H24.698V36.38H23.6242V33.17L38.6577 1.07H39.7315V0H31.1409V1.07H32.2148V4.28L19.8658 32.1L7.51678 4.28V1.07H8.5906V0Z" transform="translate(7.44296 35.59)" fill="#BCBDC0"/>
<path d="M7.42358 6.86963L10.9172 11.2422C11.4104 11.8574 11.8352 12.2749 12.1916 12.4946C12.4504 12.6509 12.7239 12.729 13.012 12.729V13H7.84106V12.729C8.16821 12.6997 8.37817 12.6484 8.47094 12.5752C8.5686 12.502 8.61743 12.4116 8.61743 12.3042C8.61743 12.0991 8.39282 11.7134 7.9436 11.147L5.66577 8.2832L5.29956 8.59082V11.3008C5.29956 11.8184 5.32885 12.1406 5.38745 12.2676C5.44604 12.3945 5.55834 12.5044 5.72436 12.5972C5.89038 12.6851 6.15649 12.729 6.5227 12.729V13H1.51293V12.729H1.84252C2.13061 12.729 2.36254 12.6777 2.53833 12.5752C2.66528 12.5068 2.76293 12.3896 2.83129 12.2236C2.885 12.1064 2.91186 11.7988 2.91186 11.3008V4.76758C2.91186 4.25977 2.885 3.94238 2.83129 3.81543C2.77758 3.68848 2.66772 3.57861 2.5017 3.48584C2.34057 3.38818 2.12084 3.33936 1.84252 3.33936H1.51293V3.06836H6.45678V3.33936C6.11987 3.33936 5.86352 3.38818 5.68774 3.48584C5.56079 3.5542 5.46069 3.66895 5.38745 3.83008C5.32885 3.95215 5.29956 4.26465 5.29956 4.76758V7.8584L8.98364 4.87744C9.49633 4.4624 9.75268 4.13037 9.75268 3.88135C9.75268 3.6958 9.6477 3.54932 9.43774 3.44189C9.33032 3.38818 9.0642 3.354 8.6394 3.33936V3.06836H12.5139V3.33936C12.1672 3.36377 11.8938 3.42725 11.6936 3.52979C11.4983 3.62744 11.0442 3.96436 10.3313 4.54053L7.42358 6.86963Z" transform="translate(17.1074 24.89)" fill="white"/>
<path d="M4.566 8.50293V11.2568C4.566 11.7939 4.59774 12.1333 4.66122 12.2749C4.72958 12.4116 4.84677 12.5215 5.01278 12.6045C5.18368 12.6875 5.49374 12.729 5.94296 12.729V13H0.89657V12.729C1.35555 12.729 1.66561 12.6875 1.82675 12.6045C1.99276 12.5166 2.10751 12.4043 2.17098 12.2676C2.23934 12.1309 2.27352 11.7939 2.27352 11.2568V4.81152C2.27352 4.27441 2.23934 3.9375 2.17098 3.80078C2.10751 3.65918 1.99276 3.54687 1.82675 3.46387C1.66073 3.38086 1.35067 3.33936 0.89657 3.33936V3.06836H5.22518C6.65096 3.06836 7.67391 3.32227 8.29403 3.83008C8.91415 4.33789 9.22421 4.97266 9.22421 5.73438C9.22421 6.37891 9.02401 6.93066 8.62362 7.38965C8.22323 7.84863 7.67147 8.16113 6.96835 8.32715C6.49471 8.44434 5.69393 8.50293 4.566 8.50293ZM4.566 3.63965V7.93164C4.72714 7.94141 4.84921 7.94629 4.93221 7.94629C5.52792 7.94629 5.9869 7.77051 6.30917 7.41895C6.63143 7.0625 6.79257 6.51318 6.79257 5.771C6.79257 5.03369 6.63143 4.49414 6.30917 4.15234C5.9869 3.81055 5.50594 3.63965 4.8663 3.63965H4.566Z" transform="translate(27.3087 31.3663)" fill="white"/>
<path d="M0.804 2.768H7.272V4.244H2.544V6.056H6.744V7.532H2.544V9.524H7.344V11H0.804V2.768ZM8.80791 2.768H10.4999L13.6679 7.244C13.7319 7.332 13.8199 7.472 13.9319 7.664C14.0439 7.856 14.1159 7.984 14.1479 8.048L14.2079 8.012C14.2079 7.948 14.1999 7.844 14.1839 7.7C14.1759 7.556 14.1719 7.428 14.1719 7.316V2.768H15.8639V11H14.1719L10.9919 6.488C10.8959 6.352 10.7999 6.2 10.7039 6.032C10.6079 5.856 10.5479 5.744 10.5239 5.696L10.4639 5.732C10.4639 5.788 10.4679 5.888 10.4759 6.032C10.4919 6.176 10.4999 6.316 10.4999 6.452V11H8.80791V2.768ZM19.4601 4.268H16.9161V2.768H23.7441V4.268H21.2001V11H19.4601V4.268ZM28.32 11.144C27.208 11.144 26.344 10.872 25.728 10.328C25.112 9.784 24.804 8.988 24.804 7.94V2.768H26.544V7.856C26.544 8.448 26.696 8.9 27 9.212C27.312 9.516 27.752 9.668 28.32 9.668C28.888 9.668 29.328 9.516 29.64 9.212C29.96 8.9 30.12 8.448 30.12 7.856V2.768H31.86V7.94C31.86 8.988 31.548 9.784 30.924 10.328C30.308 10.872 29.44 11.144 28.32 11.144ZM33.4642 2.768H37.8322C38.7522 2.768 39.4442 2.996 39.9082 3.452C40.3722 3.9 40.6042 4.532 40.6042 5.348C40.6042 6.5 40.1242 7.268 39.1642 7.652L40.8442 11H38.9602L37.5082 7.928H35.2042V11H33.4642V2.768ZM37.6762 6.476C38.0522 6.476 38.3402 6.376 38.5402 6.176C38.7402 5.976 38.8402 5.7 38.8402 5.348C38.8402 4.996 38.7402 4.724 38.5402 4.532C38.3402 4.34 38.0522 4.244 37.6762 4.244H35.2042V6.476H37.6762ZM42.1243 2.768H48.5923V4.244H43.8643V6.056H48.0643V7.532H43.8643V9.524H48.6643V11H42.1243V2.768ZM53.2842 11.144C52.6522 11.144 52.0722 11.048 51.5442 10.856C51.0242 10.656 50.6082 10.364 50.2962 9.98C49.9842 9.596 49.8282 9.132 49.8282 8.588L49.8402 8.324H51.6042L51.5922 8.516C51.5922 8.868 51.7482 9.148 52.0602 9.356C52.3722 9.564 52.8082 9.668 53.3682 9.668C53.9602 9.668 54.3882 9.592 54.6522 9.44C54.9162 9.28 55.0482 9.068 55.0482 8.804C55.0482 8.572 54.9602 8.38 54.7842 8.228C54.6162 8.068 54.4002 7.944 54.1362 7.856C53.8802 7.76 53.5242 7.648 53.0682 7.52C52.4202 7.336 51.8962 7.16 51.4962 6.992C51.0962 6.824 50.7522 6.576 50.4642 6.248C50.1762 5.912 50.0322 5.472 50.0322 4.928C50.0322 4.176 50.3362 3.604 50.9442 3.212C51.5522 2.82 52.3602 2.624 53.3682 2.624C54.3202 2.624 55.0962 2.828 55.6962 3.236C56.3042 3.636 56.6082 4.24 56.6082 5.048V5.192H54.8802V5.084C54.8802 4.78 54.7402 4.54 54.4602 4.364C54.1882 4.188 53.8162 4.1 53.3442 4.1C52.8402 4.1 52.4522 4.168 52.1802 4.304C51.9162 4.44 51.7842 4.628 51.7842 4.868C51.7842 5.052 51.8642 5.212 52.0242 5.348C52.1842 5.476 52.3842 5.584 52.6242 5.672C52.8642 5.752 53.2042 5.852 53.6442 5.972C54.3002 6.148 54.8362 6.324 55.2522 6.5C55.6762 6.668 56.0402 6.92 56.3442 7.256C56.6482 7.592 56.8002 8.032 56.8002 8.576C56.8002 9.456 56.4842 10.104 55.8522 10.52C55.2282 10.936 54.3722 11.144 53.2842 11.144Z" transform="translate(45.0268 48.29)" fill="#BCBDC0"/>
<path d="M96.757 24.288C96.229 24.288 95.693 24.16 95.149 23.904C94.621 23.632 94.125 23.24 93.661 22.728H93.565L93.277 24H90.517V7.176H94.045V11.304L93.949 13.128C94.413 12.712 94.909 12.392 95.437 12.168C95.981 11.928 96.533 11.808 97.093 11.808C97.813 11.808 98.461 11.952 99.037 12.24C99.613 12.528 100.101 12.936 100.501 13.464C100.917 13.976 101.229 14.608 101.437 15.36C101.661 16.096 101.773 16.92 101.773 17.832C101.773 18.856 101.629 19.768 101.341 20.568C101.069 21.368 100.693 22.048 100.213 22.608C99.749 23.152 99.213 23.568 98.605 23.856C98.013 24.144 97.397 24.288 96.757 24.288ZM95.941 21.408C96.549 21.408 97.069 21.136 97.501 20.592C97.933 20.032 98.149 19.136 98.149 17.904C98.149 15.76 97.461 14.688 96.085 14.688C95.381 14.688 94.701 15.048 94.045 15.768V20.64C94.365 20.928 94.685 21.128 95.005 21.24C95.325 21.352 95.637 21.408 95.941 21.408ZM105.407 28.656C105.039 28.656 104.727 28.632 104.471 28.584C104.215 28.552 103.967 28.496 103.727 28.416L104.351 25.728C104.463 25.76 104.591 25.792 104.735 25.824C104.879 25.856 105.015 25.872 105.143 25.872C105.735 25.872 106.191 25.728 106.511 25.44C106.831 25.152 107.071 24.776 107.231 24.312L107.399 23.688L102.815 12.096H106.367L108.071 17.208C108.247 17.752 108.407 18.304 108.551 18.864C108.695 19.424 108.847 20 109.007 20.592H109.103C109.231 20.032 109.359 19.472 109.487 18.912C109.631 18.336 109.775 17.768 109.919 17.208L111.359 12.096H114.743L110.615 24.12C110.327 24.872 110.023 25.528 109.703 26.088C109.399 26.664 109.039 27.136 108.623 27.504C108.223 27.888 107.759 28.176 107.231 28.368C106.719 28.56 106.111 28.656 105.407 28.656ZM17.9443 48.288C16.9203 48.288 15.8963 48.104 14.8723 47.736C13.8643 47.352 12.9603 46.784 12.1603 46.032L14.1763 43.608C14.7363 44.088 15.3523 44.48 16.0243 44.784C16.7123 45.088 17.3843 45.24 18.0403 45.24C18.7763 45.24 19.3203 45.104 19.6723 44.832C20.0403 44.56 20.2243 44.192 20.2243 43.728C20.2243 43.488 20.1683 43.28 20.0563 43.104C19.9603 42.928 19.8083 42.776 19.6003 42.648C19.4083 42.504 19.1683 42.376 18.8803 42.264C18.6083 42.136 18.3043 42 17.9683 41.856L15.9283 40.992C15.5283 40.832 15.1363 40.624 14.7523 40.368C14.3843 40.112 14.0483 39.816 13.7443 39.48C13.4563 39.128 13.2243 38.728 13.0483 38.28C12.8723 37.816 12.7843 37.296 12.7843 36.72C12.7843 36.08 12.9203 35.48 13.1923 34.92C13.4643 34.344 13.8483 33.848 14.3443 33.432C14.8403 33 15.4243 32.664 16.0963 32.424C16.7843 32.184 17.5363 32.064 18.3523 32.064C19.2643 32.064 20.1603 32.24 21.0403 32.592C21.9363 32.944 22.7203 33.456 23.3923 34.128L21.5923 36.36C21.0803 35.96 20.5683 35.656 20.0563 35.448C19.5443 35.224 18.9763 35.112 18.3523 35.112C17.7443 35.112 17.2563 35.24 16.8883 35.496C16.5363 35.736 16.3603 36.08 16.3603 36.528C16.3603 36.768 16.4163 36.976 16.5283 37.152C16.6563 37.312 16.8243 37.464 17.0323 37.608C17.2563 37.736 17.5123 37.864 17.8003 37.992C18.0883 38.104 18.4003 38.232 18.7363 38.376L20.7523 39.192C21.7123 39.576 22.4643 40.104 23.0083 40.776C23.5683 41.448 23.8483 42.336 23.8483 43.44C23.8483 44.096 23.7123 44.72 23.4403 45.312C23.1843 45.888 22.8003 46.4 22.2883 46.848C21.7923 47.28 21.1763 47.632 20.4403 47.904C19.7043 48.16 18.8723 48.288 17.9443 48.288ZM29.0835 48V35.328H24.7875V32.352H36.9315V35.328H32.6355V48H29.0835ZM45.0518 48.288C43.9958 48.288 43.0278 48.104 42.1478 47.736C41.2838 47.352 40.5398 46.808 39.9158 46.104C39.2918 45.4 38.8038 44.544 38.4518 43.536C38.1158 42.528 37.9478 41.384 37.9478 40.104C37.9478 38.824 38.1158 37.688 38.4518 36.696C38.8038 35.688 39.2918 34.848 39.9158 34.176C40.5398 33.488 41.2838 32.968 42.1478 32.616C43.0278 32.248 43.9958 32.064 45.0518 32.064C46.1078 32.064 47.0678 32.248 47.9318 32.616C48.8118 32.968 49.5638 33.488 50.1878 34.176C50.8118 34.864 51.2918 35.712 51.6278 36.72C51.9798 37.712 52.1558 38.84 52.1558 40.104C52.1558 41.384 51.9798 42.528 51.6278 43.536C51.2918 44.544 50.8118 45.4 50.1878 46.104C49.5638 46.808 48.8118 47.352 47.9318 47.736C47.0678 48.104 46.1078 48.288 45.0518 48.288ZM45.0518 45.24C46.1238 45.24 46.9718 44.784 47.5958 43.872C48.2198 42.944 48.5318 41.688 48.5318 40.104C48.5318 38.536 48.2198 37.312 47.5958 36.432C46.9718 35.552 46.1238 35.112 45.0518 35.112C43.9798 35.112 43.1318 35.552 42.5078 36.432C41.8838 37.312 41.5718 38.536 41.5718 40.104C41.5718 41.688 41.8838 42.944 42.5078 43.872C43.1318 44.784 43.9798 45.24 45.0518 45.24ZM55.098 48V32.352H60.738C61.57 32.352 62.346 32.432 63.066 32.592C63.802 32.752 64.442 33.024 64.986 33.408C65.53 33.776 65.962 34.272 66.282 34.896C66.602 35.52 66.762 36.296 66.762 37.224C66.762 38.376 66.506 39.328 65.994 40.08C65.498 40.816 64.826 41.368 63.978 41.736L67.53 48H63.57L60.57 42.36H58.626V48H55.098ZM58.626 39.552H60.45C61.378 39.552 62.082 39.36 62.562 38.976C63.058 38.576 63.306 37.992 63.306 37.224C63.306 36.456 63.058 35.92 62.562 35.616C62.082 35.312 61.378 35.16 60.45 35.16H58.626V39.552ZM69.8168 48V32.352H79.6088V35.328H73.3448V38.472H78.6728V41.424H73.3448V45.024H79.8488V48H69.8168ZM91.4419 40.08L91.0579 41.52H94.3939L94.0339 40.08C93.8099 39.296 93.5939 38.464 93.3859 37.584C93.1779 36.704 92.9699 35.856 92.7619 35.04H92.6659C92.4739 35.872 92.2739 36.728 92.0659 37.608C91.8739 38.472 91.6659 39.296 91.4419 40.08ZM85.7779 48L90.6739 32.352H94.9219L99.8179 48H96.0739L95.1139 44.28H90.3379L89.3779 48H85.7779ZM101.528 48V32.352H105.152L109.232 40.128L110.768 43.584H110.864C110.784 42.752 110.688 41.824 110.576 40.8C110.48 39.776 110.432 38.8 110.432 37.872V32.352H113.792V48H110.168L106.088 40.2L104.552 36.792H104.456C104.536 37.656 104.624 38.584 104.72 39.576C104.832 40.568 104.888 41.528 104.888 42.456V48H101.528ZM121.161 40.08L120.777 41.52H124.113L123.753 40.08C123.529 39.296 123.313 38.464 123.105 37.584C122.897 36.704 122.689 35.856 122.481 35.04H122.385C122.193 35.872 121.993 36.728 121.785 37.608C121.593 38.472 121.385 39.296 121.161 40.08ZM115.497 48L120.393 32.352H124.641L129.537 48H125.793L124.833 44.28H120.057L119.097 48H115.497ZM131.246 48V32.352H134.774V45.024H140.966V48H131.246ZM144.294 48V42.432L139.566 32.352H143.358L144.75 35.952C144.974 36.544 145.182 37.12 145.374 37.68C145.582 38.224 145.798 38.8 146.022 39.408H146.118C146.342 38.8 146.558 38.224 146.766 37.68C146.99 37.12 147.214 36.544 147.438 35.952L148.854 32.352H152.55L147.822 42.432V48H144.294ZM152.692 48V45.864L159.604 35.328H153.34V32.352H163.948V34.488L157.036 45.024H164.02V48H152.692ZM166.661 48V32.352H176.453V35.328H170.189V38.472H175.517V41.424H170.189V45.024H176.693V48H166.661ZM179.809 48V32.352H185.449C186.281 32.352 187.057 32.432 187.777 32.592C188.513 32.752 189.153 33.024 189.697 33.408C190.241 33.776 190.673 34.272 190.993 34.896C191.313 35.52 191.473 36.296 191.473 37.224C191.473 38.376 191.217 39.328 190.705 40.08C190.209 40.816 189.537 41.368 188.689 41.736L192.241 48H188.281L185.281 42.36H183.337V48H179.809ZM183.337 39.552H185.161C186.089 39.552 186.793 39.36 187.273 38.976C187.769 38.576 188.017 37.992 188.017 37.224C188.017 36.456 187.769 35.92 187.273 35.616C186.793 35.312 186.089 35.16 185.161 35.16H183.337V39.552Z" transform="translate(38 59)" fill="white"/>
</svg>
